<svg version="1.1" xmlns="http://www.w3.org/2000/svg" style="display: block;" viewBox="0 0 1024 1024" width="256" height="256" preserveAspectRatio="none">
<path transform="translate(0,0)" fill="rgb(200,183,151)" d="M 314.632 143.198 C 317.787 157.015 321.948 171.489 326.609 184.85 C 330.757 193.993 335.764 188.409 335.371 200.332 C 335.054 209.966 324.011 206.225 321.055 209.69 C 307.479 225.778 285.759 232.051 270.239 245.131 C 235.034 274.799 202.821 305.543 178.773 345.103 C 163.866 369.626 145.963 391.882 142.025 421.787 C 136.659 427.653 131.955 435.791 129.761 443.412 C 127.444 450.293 125.7 482.428 127.086 488.64 C 121.501 503.799 114.353 488.899 113.221 511.953 L 112.522 517.979 C 111.825 524.954 111.953 536.023 111.827 543.317 C 104.197 545.053 95.6103 550.039 88.3888 553.66 C 79.5144 553.257 75.2311 552.713 67.2383 549.403 C 57.7652 539.268 55.9527 530.877 52.0575 517.805 C 59.2781 495.849 61.0979 476.482 64.6112 453.656 C 66.0984 442.756 72.3709 431.412 75.1863 420.216 C 79.9957 401.092 88.5378 384.349 96.8632 366.527 C 125.479 305.704 167.174 251.951 218.971 209.108 C 229.081 200.642 241.592 192.812 250.912 184.865 C 271.708 167.134 297.082 162.576 314.632 143.198 z"/>
<path transform="translate(0,0)" fill="rgb(200,183,151)" d="M 723.473 204.688 C 730.28 182.547 741.435 175.538 764.42 177.221 C 768.887 184.032 771.006 184.519 777.533 188.731 C 810.311 209.884 837.657 239.92 863.906 268.528 C 873.853 279.37 883.293 296.471 894.212 305.202 C 896.277 314.075 919.497 352.903 926.219 358.099 C 928.375 378.507 933.392 378.662 941.579 396.404 C 944.61 402.971 945.824 425.222 952.349 430.854 C 957.021 434.887 957.945 432.365 959.302 440.267 C 960.461 447.022 959.171 468.873 960.822 473.751 C 960.895 482.163 961.271 489.754 961.791 498.157 C 966.007 495.658 969.334 493.085 974.326 493.701 C 977.081 516.963 976.35 567.514 975.83 592.153 C 957.182 592.199 945.768 591.28 928.456 583.218 C 926.09 582.117 913.004 577.73 912.903 574.696 C 911.987 547.067 910.824 521.737 906.961 494.211 C 904.447 477.437 897.185 475.574 897.074 462.668 C 896.739 446.323 882.106 410.453 874.676 394.477 C 852.329 346.43 818.371 302.078 779.454 266.352 C 755.426 243.684 729.485 236.576 723.473 204.688 z"/>
<path transform="translate(0,0)" fill="rgb(197,182,146)" fill-opacity="0.0117647" d="M 960.822 473.751 C 964.107 469.752 959.463 467.121 968.152 464.905 C 977.129 466.986 974.514 486.252 974.326 493.701 C 969.334 493.085 966.007 495.658 961.791 498.157 C 961.271 489.754 960.895 482.163 960.822 473.751 z"/>
<path transform="translate(0,0)" fill="rgb(197,182,146)" fill-opacity="0.0509804" d="M 113.221 511.953 C 114.353 488.899 121.501 503.799 127.086 488.64 C 127.402 495.349 131.024 524.718 120.006 526.535 C 119.57 526.607 116.257 525.989 115.584 525.862 C 117.148 521.18 119.251 514.084 113.221 511.953 z"/>
<path transform="translate(0,0)" fill="rgb(200,183,151)" fill-opacity="0.0745098" d="M 370.316 122.639 C 370.747 124.518 370.64 124.613 371.941 126.128 L 371.923 124.584 C 380.114 130.409 377.426 142.695 373.52 150.283 C 372.963 152.9 372.924 153.71 371.35 155.84 C 366.849 151.166 368.212 128.875 370.316 122.639 z M 372.534 146.355 C 374.39 139.612 377.544 133.06 370.403 128.523 C 369.727 133.69 368.44 141.913 370.758 146.541 C 371.272 146.515 372.141 146.544 372.534 146.355 z"/>
<path transform="translate(0,0)" fill="rgb(200,183,151)" fill-opacity="0.129412" d="M 370.403 128.523 C 377.544 133.06 374.39 139.612 372.534 146.355 C 372.141 146.544 371.272 146.515 370.758 146.541 C 368.44 141.913 369.727 133.69 370.403 128.523 z"/>
<path transform="translate(0,0)" fill="rgb(197,182,146)" fill-opacity="0.0117647" d="M 129.761 443.412 C 131.955 435.791 136.659 427.653 142.025 421.787 C 142.493 429.118 144.736 440.463 140.377 445.484 C 134.495 447.477 134.45 445.163 129.761 443.412 z"/>
<path transform="translate(0,0)" fill="rgb(200,183,151)" fill-opacity="0.14902" d="M 897.074 462.668 C 897.185 475.574 904.447 477.437 906.961 494.211 L 904.2 490.271 L 902.998 490.287 C 902.184 493.039 902.049 494.192 900.228 496.455 L 898.897 495.966 C 895.98 489.133 896.742 470.631 897.074 462.668 z"/>
<path transform="translate(0,0)" fill="rgb(197,182,146)" fill-opacity="0.0117647" d="M 113.221 511.953 C 119.251 514.084 117.148 521.18 115.584 525.862 L 114.241 525.294 C 114.275 522.024 114.568 520.621 112.522 517.979 L 113.221 511.953 z"/>
<path transform="translate(0,0)" fill="rgb(200,183,151)" d="M 468.285 0 L 554.534 0 C 554.443 2.07702 554.09 6.26306 555.461 7.86683 C 560.752 14.0547 571.754 15.2357 579.567 16.931 C 592.1 29.2988 603.512 35.5757 615.689 49.8725 C 624.334 60.0228 630.693 73.6228 639.001 81.9685 C 639.541 90.1026 640.109 98.0731 640.258 106.233 C 639.618 122.541 641.08 143.151 640.95 160.324 C 639.959 164.473 638.665 183.535 639.162 187.719 C 634.171 193.089 628.377 197.972 625.235 204.606 C 623.18 211.649 604.792 229.181 599.115 234.8 C 575.522 258.153 539.297 268.364 506.319 266.986 C 465.65 265.366 427.936 245.305 403.862 212.487 C 396.068 201.752 395.764 193.967 385.9 183.218 C 371.135 118.914 382.052 57.1252 440.104 20.8935 C 455.428 11.3296 459.648 17.2189 468.285 0 z"/>
<path transform="translate(0,0)" fill="rgb(200,183,151)" d="M 863.648 636.207 C 877.125 635.801 884.196 635.725 897.371 637.996 C 909.918 639.792 916.014 640.222 928.498 640.47 C 937.218 649.643 944.083 651.899 954.259 659.253 C 961.293 664.337 967.074 669.523 974.692 674.011 C 978.856 681.411 1001.12 715.056 1006.9 721.715 C 1007.52 732.784 1007.98 743.861 1008.27 754.944 C 1008.32 763.88 1008.51 773.265 1008.36 782.161 C 1008.12 792.149 1010.23 817.348 1001.78 823.244 C 990.103 831.396 993.357 840.366 985.565 850.577 C 973.138 867.026 958.516 876.788 940.829 886.591 C 926.72 894.411 925.159 895.416 908.9 896.427 L 905.584 896.896 C 888.97 897.525 871.124 897.252 854.433 897.025 L 850.991 896.883 C 807.617 893.924 772.16 855.735 753.775 818.846 C 751.483 814.248 749.727 797.814 748.098 791.358 C 747.182 774.923 746.584 763.685 746.881 747.352 C 755.371 698.127 782.204 664.239 827.435 643.714 C 839.566 638.21 850.628 639.065 863.648 636.207 z"/>
<path transform="translate(0,0)" fill="rgb(200,183,151)" d="M 120.085 638.926 C 125.313 639.235 142.991 636.735 152.756 636.93 C 166.047 638.448 180.301 640.42 193.517 640.96 C 202.867 649.474 209.773 652.506 220.501 658.565 C 221.66 659.22 240.852 674.762 240.927 674.893 C 243.909 682.186 248.705 685.778 255.256 690.093 C 254.702 701.024 267.483 711.836 270.806 721.985 C 272.004 725.646 272.054 731.482 272.117 735.444 C 272.554 752.75 271.961 776.843 272.925 793.026 C 272.099 809.677 273.038 821.829 261.386 834.07 C 258.733 836.858 255.907 844.91 253.161 848.209 C 244.363 859.54 232.447 872.53 219.913 879.732 C 212.699 883.877 202.673 888.208 196.014 893.599 C 195.254 894.215 179.659 896.825 177.253 897.343 C 162.214 896.665 153.578 897.454 138.972 900.296 C 135.65 900.943 124.758 897.521 118.499 897.862 C 112.661 897.399 101.909 896.054 96.6609 893.723 C 72.4073 882.948 48.1633 865.768 34.6119 842.507 C 29.5219 833.77 25.5951 822.662 18.0628 816.441 L 17.2869 815.81 L 15.9329 797.365 C 15.8683 794.189 15.5458 790.487 15.346 787.269 C 14.8089 773.898 15.3736 759.713 15.6168 746.256 C 15.8567 743.358 16.8442 726.573 17.579 724.669 C 28.5806 696.158 51.0581 666.637 78.7488 652.757 C 86.6314 648.806 92.481 645.273 99.476 640.306 C 106.827 640.112 112.813 640.057 120.085 638.926 z"/>
<path transform="translate(0,0)" fill="rgb(200,183,151)" d="M 403.178 1008.82 C 359.109 1005.62 309.671 978.065 271.311 957.08 C 266.709 954.562 260.083 948.986 255.616 945.725 C 250.932 942.307 240.192 938.866 242.361 932.384 C 263.517 923.516 272.097 908.323 296.189 897.617 C 307.591 908.74 323.657 914.595 336.643 924.054 C 339.033 925.795 351.977 927.683 354.423 929.419 C 372.211 942.046 386.39 944.938 407.736 945.908 C 413.429 948.06 410.83 950.187 417.598 952.583 C 439.071 960.187 455.03 959.994 477.252 960.346 C 499.101 960.878 520.961 960.888 542.811 960.374 C 554.524 960.151 568.407 960.516 579.792 959.133 C 592.036 959.826 610.482 948.071 619.921 946.603 C 644.503 942.782 648.277 940.562 669.619 929.286 C 684.624 925.873 704.289 916.715 716.625 925.041 C 724.816 930.569 727.853 936.471 734.398 943.187 C 735.352 947.862 737.349 958.703 733.72 962.696 C 716.668 981.459 688.425 988.655 666.105 998.031 C 646.195 1006.39 643.483 1007.25 621.654 1008.75 C 618.59 1008.27 612.491 1008.72 609.159 1008.86 C 603.797 1008.51 575.453 1008.21 572.533 1010.8 C 576.851 1015.18 576.282 1014.53 574.189 1020.44 C 572.463 1020.47 571.061 1020.51 569.34 1020.65 L 568.624 1021.91 L 569.587 1024 L 461.348 1024 L 461.519 1012.2 C 447.668 1007.74 430.334 1008.02 415.826 1008.85 C 412.89 1009.13 406.377 1008.86 403.178 1008.82 z"/>
<path transform="translate(0,0)" fill="rgb(197,182,146)" fill-opacity="0.407843" d="M 272.117 735.444 C 273.501 742.39 273.603 747.413 274.425 754.205 C 275.681 750.147 276.611 745.494 279.709 742.728 L 282.199 741.963 C 291.244 747.767 289.797 795.567 280.912 798.675 C 276.181 795.428 277.351 791.42 274.091 791.65 L 272.925 793.026 C 271.961 776.843 272.554 752.75 272.117 735.444 z M 283.738 782.854 C 287.223 775.285 290.267 762.198 280.117 758.692 C 277.135 765.618 272.099 780.568 283.738 782.854 z"/>
<path transform="translate(0,0)" fill="rgb(197,182,146)" fill-opacity="0.537255" d="M 280.117 758.692 C 290.267 762.198 287.223 775.285 283.738 782.854 C 272.099 780.568 277.135 765.618 280.117 758.692 z"/>
<path transform="translate(0,0)" fill="rgb(197,182,146)" fill-opacity="0.258824" d="M 640.258 106.233 C 642.142 110.167 640.894 114.323 642.406 118.512 C 645.758 116.298 645.405 111.466 652.515 110.904 C 657.676 114.976 656.33 149.919 653.548 156.759 C 650.554 159.308 651.642 159.145 648.272 159.302 C 647.125 158.2 645.771 156.969 644.764 155.76 L 642.569 155.9 L 640.95 160.324 C 641.08 143.151 639.618 122.541 640.258 106.233 z M 650.99 147.725 C 656.139 142.021 655.909 129.248 652.45 122.767 L 649.937 121.489 C 643.192 129.962 640.275 141.107 650.99 147.725 z"/>
<path transform="translate(0,0)" fill="rgb(197,182,146)" fill-opacity="0.411765" d="M 649.937 121.489 L 652.45 122.767 C 655.909 129.248 656.139 142.021 650.99 147.725 C 640.275 141.107 643.192 129.962 649.937 121.489 z"/>
<path transform="translate(0,0)" fill="rgb(200,183,151)" fill-opacity="0.85098" d="M 415.826 1008.85 C 430.334 1008.02 447.668 1007.74 461.519 1012.2 L 461.348 1024 L 423.829 1024 C 420.337 1019.34 418.888 1016.57 419.091 1010.63 L 415.826 1008.85 z"/>
<path transform="translate(0,0)" fill="rgb(197,182,146)" fill-opacity="0.0196078" d="M 114.677 626.051 C 118.759 626.123 124.577 626.405 128.497 626.024 C 136.577 625.239 166.251 619.111 152.756 636.93 C 142.991 636.735 125.313 639.235 120.085 638.926 C 117.877 638.465 117.04 638.215 114.94 637.393 C 113.047 634.669 114.238 629.559 114.677 626.051 z"/>
<path transform="translate(0,0)" fill="rgb(197,182,146)" fill-opacity="0.235294" d="M 0 752.926 C 3.20531 755.55 7.71226 754.515 11.0604 752.716 C 12.0418 752.199 13.0121 751.661 13.9707 751.102 C 14.414 749.133 14.5575 748.482 15.4267 746.647 L 15.6168 746.256 C 15.3736 759.713 14.8089 773.898 15.346 787.269 C 12.0621 778.962 10.3729 787.106 0 781.743 L 0 752.926 z"/>
<path transform="translate(0,0)" fill="rgb(197,182,146)" fill-opacity="0.392157" d="M 854.433 897.025 C 871.124 897.252 888.97 897.525 905.584 896.896 C 896.337 899.487 895.984 900.464 895.24 910.334 C 886.92 911.153 874.95 910.521 869.173 911.282 C 865.271 909.482 866.107 910.53 864.21 907.168 C 864.329 903.971 864.4 903.315 863.476 900.145 C 859.959 897.159 859.682 897.945 854.433 897.025 z"/>
<path transform="translate(0,0)" fill="rgb(197,182,146)" fill-opacity="0.396078" d="M 118.499 897.862 C 124.758 897.521 135.65 900.943 138.972 900.296 C 153.578 897.454 162.214 896.665 177.253 897.343 C 169.074 898.592 167.087 899.037 165.202 907.548 C 159.755 912.32 150.69 910.841 143.334 910.987 C 137.702 909.725 137.383 911.545 134.589 907.964 L 133.118 909.055 L 132.979 908.923 C 134.802 907.624 135.004 907.428 136.468 905.725 L 135.6 904.558 C 130.609 904.854 126.081 900.336 119.324 898.594 L 118.499 897.862 z"/>
<path transform="translate(0,0)" fill="rgb(200,183,151)" fill-opacity="0.796078" d="M 569.587 1024 L 568.624 1021.91 L 569.34 1020.65 C 571.061 1020.51 572.463 1020.47 574.189 1020.44 C 576.282 1014.53 576.851 1015.18 572.533 1010.8 C 575.453 1008.21 603.797 1008.51 609.159 1008.86 L 604.402 1010.22 C 602.834 1013.57 602.969 1016.16 601.173 1019.27 C 600.309 1020.77 597.683 1022.73 596.701 1024 L 569.587 1024 z"/>
<path transform="translate(0,0)" fill="rgb(200,183,151)" fill-opacity="0.184314" d="M 738.703 793.102 C 736.997 784.399 732.755 759.359 739.527 753.116 L 741.547 753.37 L 744.018 757.63 L 745.717 756.13 C 745.107 751.987 745.435 751.331 746.881 747.352 C 746.584 763.685 747.182 774.923 748.098 791.358 C 747.331 788.438 747.092 786.412 745.101 784.174 C 742.622 785.102 740.349 790.282 738.703 793.102 z M 740.224 783.121 C 742.159 777.541 746.315 765.241 739.324 761.54 C 737.998 765.59 734.819 781.402 740.224 783.121 z"/>
<path transform="translate(0,0)" fill="rgb(200,183,151)" fill-opacity="0.286275" d="M 739.324 761.54 C 746.315 765.241 742.159 777.541 740.224 783.121 C 734.819 781.402 737.998 765.59 739.324 761.54 z"/>
<path transform="translate(0,0)" fill="rgb(197,182,146)" fill-opacity="0.152941" d="M 1024 755.109 L 1024 783.489 C 1019.02 781.684 1017.05 785.612 1011.57 780.102 C 1011.43 772.95 1010.51 761.925 1013.77 755.703 C 1017.87 753.387 1018.92 756.1 1024 755.109 z"/>
<path transform="translate(0,0)" fill="rgb(197,182,146)" fill-opacity="0.25098" d="M 609.159 1008.86 C 612.491 1008.72 618.59 1008.27 621.654 1008.75 C 622.946 1015.07 622.824 1017.85 621.15 1024 L 596.701 1024 C 597.683 1022.73 600.309 1020.77 601.173 1019.27 C 602.969 1016.16 602.834 1013.57 604.402 1010.22 L 609.159 1008.86 z"/>
<path transform="translate(0,0)" fill="rgb(197,182,146)" fill-opacity="0.0196078" d="M 1008.27 754.944 C 1013.26 748.763 1005.53 741.983 1013.5 737.777 C 1017.5 737.903 1016.29 737.382 1019.63 739.343 C 1021.47 742.21 1021.37 743.222 1021.41 746.607 L 1021.41 747.628 L 1022.41 747.956 L 1024 743.955 L 1024 755.109 C 1018.92 756.1 1017.87 753.387 1013.77 755.703 C 1010.51 761.925 1011.43 772.95 1011.57 780.102 L 1008.36 782.161 C 1008.51 773.265 1008.32 763.88 1008.27 754.944 z"/>
<path transform="translate(0,0)" fill="rgb(200,183,151)" fill-opacity="0.211765" d="M 403.178 1008.82 C 406.377 1008.86 412.89 1009.13 415.826 1008.85 L 419.091 1010.63 C 418.888 1016.57 420.337 1019.34 423.829 1024 L 401.524 1024 C 401.242 1019.02 403.693 1011.39 403.178 1008.82 z"/>
<path transform="translate(0,0)" fill="rgb(200,183,151)" fill-opacity="0.121569" d="M 863.648 636.207 C 865.071 635.524 867.674 634.688 868.353 633.368 C 872.766 624.802 888.009 620.409 893.111 630.552 L 892.818 634.67 C 894.568 636.337 895.292 636.746 897.371 637.996 C 884.196 635.725 877.125 635.801 863.648 636.207 z"/>
<path transform="translate(0,0)" fill="rgb(197,182,146)" fill-opacity="0.0196078" d="M 0 781.743 C 10.3729 787.106 12.0621 778.962 15.346 787.269 C 15.5458 790.487 15.8683 794.189 15.9329 797.365 C 10.6144 797.758 5.30271 798.239 -7.10543e-15 798.807 L 0 781.743 z"/>
<path transform="translate(0,0)" fill="rgb(197,182,146)" fill-opacity="0.14902" d="M 850.991 896.883 L 854.433 897.025 C 859.682 897.945 859.959 897.159 863.476 900.145 C 864.4 903.315 864.329 903.971 864.21 907.168 C 866.107 910.53 865.271 909.482 869.173 911.282 C 862.534 911.05 854.129 912.877 849.835 907.954 C 848.864 904.549 850.189 900.438 850.991 896.883 z"/>
<path transform="translate(0,0)" fill="rgb(200,183,151)" fill-opacity="0.00784314" d="M 908.9 896.427 C 909.623 900.402 910.543 903.52 909.429 907.39 C 905.492 912.01 901.049 910.587 895.24 910.334 C 895.984 900.464 896.337 899.487 905.584 896.896 L 908.9 896.427 z"/>
<path transform="translate(0,0)" fill="rgb(200,183,151)" fill-opacity="0.0156863" d="M 240.927 674.893 C 244.315 674.487 253.059 671.741 254.17 671.851 C 257.6 675.702 253.519 683.427 255.199 688.007 C 255.492 688.805 255.377 689.303 255.256 690.093 C 248.705 685.778 243.909 682.186 240.927 674.893 z"/>
<path transform="translate(0,0)" fill="rgb(197,182,146)" fill-opacity="0.0156863" d="M 625.235 204.606 C 628.377 197.972 634.171 193.089 639.162 187.719 C 639.745 199.851 641.097 211.004 625.235 204.606 z"/>
<path transform="translate(0,0)" fill="rgb(200,183,151)" fill-opacity="0.0980392" d="M 119.324 898.594 C 126.081 900.336 130.609 904.854 135.6 904.558 L 136.468 905.725 C 135.004 907.428 134.802 907.624 132.979 908.923 L 133.118 909.055 L 134.589 907.964 C 137.383 911.545 137.702 909.725 143.334 910.987 C 141.496 911.232 139.646 911.384 137.793 911.441 C 132.776 911.587 117.901 911.439 114.291 908.043 L 114.414 906.325 C 118.335 903.951 122.606 906.7 125.597 905.106 L 119.324 898.594 z"/>
</svg>